# AST/ASF file generated using VICON BodyLanguage
# -----------------------------------------------
:version 1.10
:name VICON
:units
  mass 1.0
  length 0.45
  angle deg
:documentation
   .ast/.asf automatically generated from VICON data using
   VICON BodyBuilder and BodyLanguage model FoxedUp or BRILLIANT.MOD
:root
   order TX TY TZ RX RY RZ
   axis XYZ
   position 0 0 0  
   orientation 0 0 0 
:bonedata
  begin
     id 1 
     name lhipjoint
     direction 0.690799 -0.707083 0.151096 
     length 2.54797 
     axis 0 0 0  XYZ
  end
  begin
     id 2 
     name lfemur
     direction 0.34202 -0.939693 0  
     length 7.21646  
     axis 0 0 20  XYZ
    dof rx ry rz
    limits (-160.0 20.0)
           (-70.0 70.0)
           (-60.0 70.0)
  end
  begin
     id 3 
     name ltibia
     direction 0.34202 -0.939693 0   
     length 8.16759   
     axis 0 0 20   XYZ
    dof rx
    limits (-10.0 170.0)
  end
  begin
     id 4 
     name lfoot
     direction 0.0487203 -0.133858 0.989802   
     length 1.93375   
     axis -90 7.62852e-016 20   XYZ
    dof rx rz
    limits (-45.0 90.0)
           (-70.0 20.0)
  end
  begin
     id 5 
     name ltoes
     direction 1.53453e-011 -4.21783e-011 1   
     length 0.979747   
     axis -90 7.62852e-016 20   XYZ
    dof rx
    limits (-90.0 20.0)
  end
  begin
     id 6 
     name rhipjoint
     direction -0.694693 -0.703425 0.150315   
     length 2.56122  
     axis 0 0 0  XYZ 
  end
  begin
     id 7 
     name rfemur
     direction -0.34202 -0.939693 0   
     length 7.36786   
     axis 0 0 -20   XYZ
    dof rx ry rz
    limits (-160.0 20.0)
           (-70.0 70.0)
           (-70.0 60.0)
  end
  begin
     id 8 
     name rtibia
     direction -0.34202 -0.939693 0   
     length 8.07288   
     axis 0 0 -20   XYZ
    dof rx
    limits (-10.0 170.0)
 end
 begin
     id 9 
     name rfoot
     direction -0.0428397 -0.117701 0.992125   
     length 1.88295  
     axis -90 -7.62852e-016 -20   XYZ
    dof rx rz
    limits (-45.0 90.0)
           (-20.0 70.0)
  end
  begin
     id 10 
     name rtoes
     direction -1.53456e-011 -4.2187e-011 1   
     length 0.955578   
     axis -90 -7.62852e-016 -20   XYZ
    dof rx
    limits (-90.0 20.0)
  end
  begin
     id 11 
     name lowerback
     direction 0.0288145 0.999398 -0.0193241   
     length 1.92149   
     axis 0 0 0   XYZ
    dof rx ry rz
    limits (-20.0 45.0)
           (-30.0 30.0)
           (-30.0 30.0)
  end
  begin
     id 12 
     name upperback
     direction 0.0233784 0.998099 0.0570278   
     length 1.90435   
     axis 0 0 0   XYZ
    dof rx ry rz
    limits (-20.0 45.0)
           (-30.0 30.0)
           (-30.0 30.0)
  end
  begin
     id 13 
     name thorax
     direction 0.0096694 0.997833 0.0650817   
     length 1.9111   
     axis 0 0 0   XYZ
    dof rx ry rz
    limits (-20.0 45.0)
           (-30.0 30.0)
           (-30.0 30.0)
  end
  begin
     id 14 
     name lowerneck
     direction 0.00516803 0.999916 0.0118722   
     length 1.74664   
     axis 0 0 0   XYZ
    dof rx ry rz
    limits (-20.0 45.0)
           (-30.0 30.0)
           (-30.0 30.0)
  end
  begin
     id 15 
     name upperneck
     direction -0.0510851 0.996117 -0.071696   
     length 1.68498   
     axis 0 0 0   XYZ
    dof rx ry rz
    limits (-20.0 45.0)
           (-30.0 30.0)
           (-30.0 30.0)
  end
  begin
     id 16
     name head
     direction -0.019188 0.999436 -0.0275702  
     length 1.83483  
     axis 0 0 0   XYZ
    dof rx ry rz
    limits (-20.0 45.0)
           (-30.0 30.0)
           (-30.0 30.0)
  end
  begin
     id 17 
     name lclavicle
     direction 0.967006 0.248456 -0.0562957  
     length 3.39395  
     axis 0 0 0   XYZ
    dof ry rz
    limits (-20.0 10.0)
           (0.0 20.0)
  end
  begin
     id 18 
     name lhumerus
     direction 1 -4.48962e-011 -5.62711e-019   
     length 5.24318   
     axis 180 -30 -90   XYZ
    dof rx ry rz
    limits (-60.0 90.0)
           (-90.0 90.0)
           (-90.0 90.0)
  end
  begin
     id 19
     name lradius
     direction 1 -4.48966e-011 7.90625e-027   
     length 2.98999   
     axis 180 -30 -90   XYZ
    dof rx
    limits (-10.0 170.0)
  end
  begin
     id 20
     name lwrist
     direction 1 -4.48959e-011 1.61068e-026   
     length 1.49499   
     axis -9.31229e-015 90 90   XYZ
    dof ry
    limits (-180.0 0.0)
 end
  begin
     id 21 
     name lhand
     direction 1 -4.49017e-011 3.22136e-026   
     length 0.726745   
     axis -2.0555e-014 90 90   XYZ
    dof rx rz
    limits (-90.0 90.0)
           (-45.0 45.0)
  end
  begin
     id 22 
     name lfingers
     direction 1 -4.4898e-011 6.44272e-026   
     length 0.58592   
     axis -4.11101e-014 90 90   XYZ
    dof rx
    limits (0.0 90.0)
  end
  begin
     id 23
     name lthumb
     direction 0.707107 -6.34922e-011 0.707107   
     length 0.841268   
     axis -90 45 2.85299e-015   XYZ
    dof rx rz
    limits (-45.0 45.0)
           (-45.0 45.0)
  end
  begin
     id 24 
     name rclavicle
     direction -0.972232 0.230238 0.0419005   
     length 3.40416  
     axis 0 0 0   XYZ 
    dof ry rz
    limits (-10.0 20.0)
           (-20.0 0.0)
  end
  begin
     id 25 
     name rhumerus
     direction -1 -4.48976e-011 2.48487e-027  
     length 5.37045   
     axis 180 30 90   XYZ
    dof rx ry rz
    limits (-90.0 60.0)
           (-90.0 90.0)
           (-90.0 90.0)
  end
  begin
     id 26 
     name rradius
     direction -1 -4.48942e-011 7.87951e-027   
     length 2.92792   
     axis 180 30 90   XYZ
    dof rx
    limits (-10.0 170.0)
  end
  begin
     id 27 
     name rwrist
     direction -1 -4.48969e-011 1.61068e-026   
     length 1.46396   
     axis -9.31229e-015 -90 -90   XYZ
    dof ry
    limits (-180.0 0.0)
  end
  begin
     id 28
     name rhand
     direction -1 -4.49043e-011 3.22136e-026   
     length 0.784497   
     axis -2.0555e-014 -90 -90   XYZ
    dof rx rz
    limits (-90.0 90.0)
           (-45.0 45.0)
  end
  begin
     id 29
     name rfingers
     direction -1 -4.48823e-011 6.44272e-026   
     length 0.632482   
     axis -4.11101e-014 -90 -90   XYZ
    dof rx
    limits (0.0 90.0)
  end
  begin
     id 30
     name rthumb
     direction -0.707107 -6.34923e-011 0.707107   
     length 0.908121   
     axis -90 -45 -2.85299e-015   XYZ
    dof rx rz
    limits (-45.0 45.0)
           (-45.0 45.0)
  end
:hierarchy
  begin
    root lhipjoint rhipjoint lowerback
    lhipjoint lfemur
    lfemur ltibia
    ltibia lfoot
    lfoot ltoes
    rhipjoint rfemur
    rfemur rtibia
    rtibia rfoot
    rfoot rtoes
    lowerback upperback
    upperback thorax
    thorax lowerneck lclavicle rclavicle
    lowerneck upperneck
    upperneck head
    lclavicle lhumerus
    lhumerus lradius
    lradius lwrist
    lwrist lhand lthumb
    lhand lfingers
    rclavicle rhumerus
    rhumerus rradius
    rradius rwrist
    rwrist rhand rthumb
    rhand rfingers
  end

#!OML:ASF E:\Style6\Style6.ASF
:FULLY-SPECIFIED
:DEGREES
1113
root 0.166082 18.2356 0.267377 10.4575 -3.5016 -3.15094
lowerback -3.07876 0.149364 1.77843
upperback -5.11196 0.251586 2.5679
thorax -3.54383 0.112623 1.65075
lowerneck -6.57508 0.544589 4.13594
upperneck 11.5473 1.05952 -6.53643
head 4.58534 0.314742 -2.6361
rclavicle -1.27843e-014 -4.37326e-015
rhumerus -40.938 -6.81761 -77.7946
rradius 27.9965
rwrist 25.148
rhand -6.97809 10.7808
rfingers 7.12502
rthumb 18.8919 -18.3218
lclavicle -1.27843e-014 -4.37326e-015
lhumerus -37.8808 4.55868 83.4004
lradius 19.5721
lwrist -25.1082
lhand -4.68697 15.7711
lfingers 7.12502
lthumb 21.0941 44.6437
rfemur -11.6512 14.6486 20.6346
rtibia 9.61741
rfoot -2.88087 -17.0626
rtoes -18.1104
lfemur -16.3223 -16.567 -13.3096
ltibia 21.2728
lfoot -7.75664 21.3344
ltoes -13.2819
1114
root 0.167322 18.2355 0.266022 10.4617 -3.48127 -3.17431
lowerback -3.07724 0.151166 1.80419
upperback -5.11101 0.253991 2.57236
thorax -3.54372 0.112993 1.64093
lowerneck -6.53103 0.536004 4.12162
upperneck 11.5149 1.04664 -6.51454
head 4.56715 0.310091 -2.62735
rclavicle -6.28657e-015 2.78299e-015
rhumerus -40.906 -6.73163 -77.8642
rradius 28.05
rwrist 25.0281
rhand -7.10275 10.8173
rfingers 7.12502
rthumb 18.772 -18.2969
lclavicle -6.28657e-015 2.78299e-015
lhumerus -37.8733 4.193 83.6502
lradius 19.7284
lwrist -24.672
lhand -4.7652 15.7289
lfingers 7.12502
lthumb 21.019 44.6099
rfemur -11.6735 14.6437 20.6584
rtibia 9.63451
rfoot -2.89783 -17.064
rtoes -17.8812
lfemur -16.3475 -16.5164 -13.2848
ltibia 21.2887
lfoot -7.76569 21.2836
ltoes -13.0378
1115
root 0.167152 18.2344 0.26325 10.4603 -3.48939 -3.22393
lowerback -3.04761 0.151811 1.83478
upperback -5.11808 0.256355 2.58819
thorax -3.56788 0.11331 1.64018
lowerneck -6.45993 0.539816 4.14538
upperneck 11.4926 1.05299 -6.53805
head 4.54883 0.314233 -2.63797
rclavicle 5.71506e-016 4.09496e-014
rhumerus -40.8807 -6.63283 -77.9491
rradius 28.1413
rwrist 24.9025
rhand -7.13979 10.709
rfingers 7.12502
rthumb 18.7364 -18.4086
lclavicle 5.71506e-016 4.09496e-014
lhumerus -37.8951 3.89193 83.8622
lradius 19.9214
lwrist -24.2984
lhand -4.84058 15.7316
lfingers 7.12502
lthumb 20.9466 44.6206
rfemur -11.7064 14.6721 20.7086
rtibia 9.67046
rfoot -2.88892 -17.0589
rtoes -17.8039
lfemur -16.3651 -16.4654 -13.2302
ltibia 21.3064
lfoot -7.7214 21.2498
ltoes -13.0734
1116
root 0.167715 18.2345 0.261968 10.4661 -3.48421 -3.25147
lowerback -3.03987 0.150001 1.85294
upperback -5.11979 0.254412 2.59775
thorax -3.57403 0.111854 1.63989
lowerneck -6.46176 0.549601 4.1577
upperneck 11.5147 1.06624 -6.54153
head 4.55668 0.320853 -2.64051
rclavicle -1.69215e-014 3.29983e-014
rhumerus -40.8579 -6.55635 -78.0336
rradius 28.3228
rwrist 24.6241
rhand -6.9766 10.5492
rfingers 7.12502
rthumb 18.8933 -18.5532
lclavicle -1.69215e-014 3.29983e-014
lhumerus -37.9005 3.59454 84.0897
lradius 20.1379
lwrist -23.8806
lhand -4.88207 15.8386
lfingers 7.12502
lthumb 20.9067 44.732
rfemur -11.7211 14.6832 20.7351
rtibia 9.6813
rfoot -2.76781 -17.072
rtoes -18.5503
lfemur -16.3897 -16.4015 -13.2073
ltibia 21.3343
lfoot -7.68422 21.213
ltoes -13.3243
1117
root 0.168364 18.2351 0.261105 10.4493 -3.48926 -3.21105
lowerback -3.00945 0.145068 1.80814
upperback -5.11719 0.248733 2.58323
thorax -3.58833 0.110315 1.64995
lowerneck -6.44674 0.566598 4.20176
upperneck 11.5063 1.08807 -6.57176
head 4.55307 0.33205 -2.65586
rclavicle -1.13059e-015 -3.85642e-014
rhumerus -40.8138 -6.48423 -78.1342
rradius 28.5047
rwrist 24.2616
rhand -6.66218 10.4334
rfingers 7.12502
rthumb 19.1957 -18.6393
lclavicle -1.13059e-015 -3.85642e-014
lhumerus -37.902 3.27074 84.3217
lradius 20.3439
lwrist -23.4023
lhand -4.92225 15.8853
lfingers 7.12502
lthumb 20.8681 44.7829
rfemur -11.7236 14.6906 20.6921
rtibia 9.715
rfoot -2.78781 -17.1106
rtoes -18.6811
lfemur -16.3838 -16.3638 -13.2659
ltibia 21.3461
lfoot -7.71566 21.1904
ltoes -13.2889
